<?xml version="1.0" encoding="UTF-8" standalone="no"?>
<!-- Created with Inkscape (http://www.inkscape.org/) -->

<svg
   xmlns:dc="http://purl.org/dc/elements/1.1/"
   xmlns:cc="http://creativecommons.org/ns#"
   xmlns:rdf="http://www.w3.org/1999/02/22-rdf-syntax-ns#"
   xmlns:svg="http://www.w3.org/2000/svg"
   xmlns="http://www.w3.org/2000/svg"
   xmlns:sodipodi="http://sodipodi.sourceforge.net/DTD/sodipodi-0.dtd"
   xmlns:inkscape="http://www.inkscape.org/namespaces/inkscape"
   version="1.1"
   id="svg10"
   xml:space="preserve"
   width="32"
   height="32"
   viewBox="0 0 32 32"
   sodipodi:docname="icn_add_in_form_wht.svg"
   inkscape:version="0.92.1 r15371"><metadata
     id="metadata16"><rdf:RDF><cc:Work
         rdf:about=""><dc:format>image/svg+xml</dc:format><dc:type
           rdf:resource="http://purl.org/dc/dcmitype/StillImage" /><dc:title></dc:title></cc:Work></rdf:RDF></metadata><defs
     id="defs14"><clipPath
       clipPathUnits="userSpaceOnUse"
       id="clipPath26"><path
         d="M 0,24 H 24 V 0 H 0 Z"
         id="path24"
         inkscape:connector-curvature="0" /></clipPath></defs><sodipodi:namedview
     pagecolor="#ffffff"
     bordercolor="#ffffff"
     borderopacity="1"
     objecttolerance="10"
     gridtolerance="10"
     guidetolerance="10"
     inkscape:pageopacity="0"
     inkscape:pageshadow="2"
     inkscape:window-width="724"
     inkscape:window-height="480"
     id="namedview12"
     showgrid="false"
     inkscape:zoom="37.75"
     inkscape:cx="16"
     inkscape:cy="16"
     inkscape:window-x="0"
     inkscape:window-y="0"
     inkscape:window-maximized="1"
     inkscape:current-layer="g18" /><g
     id="g18"
     inkscape:groupmode="layer"
     inkscape:label="icn_master_2"
     transform="matrix(1.3333333,0,0,-1.3333333,0,32)"><g
       id="g20"><g
         id="g22"
         clip-path="url(#clipPath26)"><g
           id="g28"
           transform="translate(12,4.543)"><path
             d="m 0,0 c -4.112,0 -7.457,3.345 -7.457,7.457 0,4.112 3.345,7.457 7.457,7.457 4.112,0 7.457,-3.345 7.457,-7.457 C 7.457,3.345 4.112,0 0,0 m 0,16.457 c -4.962,0 -9,-4.037 -9,-9 0,-4.963 4.038,-9 9,-9 4.962,0 9,4.037 9,9 0,4.963 -4.038,9 -9,9"
             style="fill:#ffffff;fill-opacity:1;fill-rule:nonzero;stroke:none"
             id="path30"
             inkscape:connector-curvature="0" /></g><g
           id="g32"
           transform="translate(15.1763,12.7939)"><path
             d="m 0,0 h -2.382 v 2.383 c 0,0.438 -0.356,0.794 -0.794,0.794 -0.439,0 -0.794,-0.356 -0.794,-0.794 V 0 h -2.383 c -0.438,0 -0.794,-0.355 -0.794,-0.794 0,-0.438 0.356,-0.794 0.794,-0.794 h 2.383 v -2.383 c 0,-0.438 0.355,-0.794 0.794,-0.794 0.438,0 0.794,0.356 0.794,0.794 v 2.383 H 0 c 0.438,0 0.794,0.356 0.794,0.794 C 0.794,-0.355 0.438,0 0,0"
             style="fill:#ffffff;fill-opacity:1;fill-rule:nonzero;stroke:none"
             id="path34"
             inkscape:connector-curvature="0" /></g></g></g></g></svg>