<?xml version="1.0" encoding="UTF-8" standalone="no"?>
<!-- Created with Inkscape (http://www.inkscape.org/) -->

<svg
   xmlns:dc="http://purl.org/dc/elements/1.1/"
   xmlns:cc="http://creativecommons.org/ns#"
   xmlns:rdf="http://www.w3.org/1999/02/22-rdf-syntax-ns#"
   xmlns:svg="http://www.w3.org/2000/svg"
   xmlns="http://www.w3.org/2000/svg"
   xmlns:sodipodi="http://sodipodi.sourceforge.net/DTD/sodipodi-0.dtd"
   xmlns:inkscape="http://www.inkscape.org/namespaces/inkscape"
   version="1.1"
   id="svg208"
   xml:space="preserve"
   width="32"
   height="32"
   viewBox="0 0 32 32"
   sodipodi:docname="icn_product_list_wht.svg"
   inkscape:version="0.92.1 r15371"><metadata
     id="metadata214"><rdf:RDF><cc:Work
         rdf:about=""><dc:format>image/svg+xml</dc:format><dc:type
           rdf:resource="http://purl.org/dc/dcmitype/StillImage" /><dc:title></dc:title></cc:Work></rdf:RDF></metadata><defs
     id="defs212"><clipPath
       clipPathUnits="userSpaceOnUse"
       id="clipPath224"><path
         d="M 0,24 H 24 V 0 H 0 Z"
         id="path222"
         inkscape:connector-curvature="0" /></clipPath></defs><sodipodi:namedview
     pagecolor="#ffffff"
     bordercolor="#ffffff"
     borderopacity="1"
     objecttolerance="10"
     gridtolerance="10"
     guidetolerance="10"
     inkscape:pageopacity="0"
     inkscape:pageshadow="2"
     inkscape:window-width="659"
     inkscape:window-height="480"
     id="namedview210"
     showgrid="false"
     inkscape:zoom="9.71875"
     inkscape:cx="16"
     inkscape:cy="16"
     inkscape:window-x="0"
     inkscape:window-y="0"
     inkscape:window-maximized="1"
     inkscape:current-layer="g216" /><g
     id="g216"
     inkscape:groupmode="layer"
     inkscape:label="icn_master_2"
     transform="matrix(1.3333333,0,0,-1.3333333,0,32)"><g
       id="g218"><g
         id="g220"
         clip-path="url(#clipPath224)"><g
           id="g226"
           transform="translate(21.084,17.0215)"><path
             d="m 0,0 h -3.2 c -0.022,-0.373 -0.153,-0.734 -0.383,-1.039 l -0.012,-0.016 h 3.061 v -12.48 h -1.718 l -0.868,9.446 c -0.025,0.273 -0.256,0.481 -0.531,0.481 h -0.914 c -0.276,0 -0.507,-0.208 -0.532,-0.481 l -0.869,-9.446 h -1.718 v 4.336 c -0.184,-0.058 -0.377,-0.097 -0.58,-0.097 h -0.488 v -4.767 c 0,-0.291 0.239,-0.527 0.534,-0.527 h 2.739 c 0.277,0 0.508,0.208 0.533,0.48 l 0.837,9.107 0.838,-9.107 c 0.024,-0.272 0.255,-0.48 0.532,-0.48 H 0 c 0.295,0 0.534,0.236 0.534,0.527 V -0.527 C 0.534,-0.236 0.295,0 0,0"
             style="fill:#ffffff;fill-opacity:1;fill-rule:nonzero;stroke:none"
             id="path228"
             inkscape:connector-curvature="0" /></g><g
           id="g230"
           transform="translate(6.0049,10.2686)"><path
             d="m 0,0 h 6.185 v 5.495 c 0,0.236 0.134,0.452 0.348,0.558 0.212,0.104 0.468,0.084 0.661,-0.058 L 8.029,5.378 9.057,6.736 6.416,8.687 C 6.26,8.797 5.613,8.897 5.223,8.912 5.156,8.841 5.076,8.756 4.978,8.653 4.916,8.589 4.863,8.534 4.838,8.505 4.808,8.47 4.774,8.438 4.737,8.411 3.777,7.695 2.406,7.695 1.446,8.411 1.409,8.438 1.376,8.47 1.346,8.505 1.321,8.534 1.269,8.588 1.207,8.652 1.108,8.755 1.027,8.84 0.961,8.913 0.574,8.897 -0.076,8.798 -0.232,8.686 l -2.641,-1.95 1.027,-1.358 0.837,0.617 c 0.192,0.142 0.447,0.162 0.66,0.058 C -0.136,5.947 0,5.731 0,5.495 Z m 6.815,-1.248 h -7.446 c -0.349,0 -0.632,0.279 -0.632,0.624 V 4.251 L -1.597,4.005 C -1.73,3.905 -1.902,3.865 -2.064,3.887 -2.23,3.911 -2.38,3.998 -2.479,4.131 L -4.262,6.49 c -0.208,0.276 -0.151,0.666 0.129,0.872 l 3.146,2.324 c 0.619,0.456 1.996,0.477 2.008,0.477 H 1.26 c 0.225,0 0.433,-0.119 0.546,-0.312 C 1.854,9.787 2.008,9.631 2.124,9.509 2.173,9.458 2.218,9.412 2.252,9.374 c 0.498,-0.345 1.182,-0.345 1.68,0 0.035,0.038 0.08,0.085 0.129,0.137 0.118,0.122 0.27,0.278 0.331,0.361 0.119,0.164 0.329,0.291 0.533,0.291 h 0.237 c 0.013,0 1.39,-0.021 2.008,-0.476 L 10.317,7.362 C 10.452,7.264 10.541,7.116 10.565,6.952 10.589,6.789 10.546,6.622 10.445,6.49 L 8.663,4.131 C 8.563,3.998 8.414,3.911 8.248,3.887 8.088,3.865 7.914,3.905 7.779,4.005 L 7.447,4.25 v -4.874 c 0,-0.345 -0.282,-0.624 -0.632,-0.624"
             style="fill:#ffffff;fill-opacity:1;fill-rule:nonzero;stroke:none"
             id="path232"
             inkscape:connector-curvature="0" /></g></g></g></g></svg>