<?xml version="1.0" encoding="UTF-8" standalone="no"?>
<!-- Created with Inkscape (http://www.inkscape.org/) -->

<svg
   xmlns:dc="http://purl.org/dc/elements/1.1/"
   xmlns:cc="http://creativecommons.org/ns#"
   xmlns:rdf="http://www.w3.org/1999/02/22-rdf-syntax-ns#"
   xmlns:svg="http://www.w3.org/2000/svg"
   xmlns="http://www.w3.org/2000/svg"
   xmlns:sodipodi="http://sodipodi.sourceforge.net/DTD/sodipodi-0.dtd"
   xmlns:inkscape="http://www.inkscape.org/namespaces/inkscape"
   version="1.1"
   id="svg242"
   xml:space="preserve"
   width="32"
   height="32"
   viewBox="0 0 32 32"
   sodipodi:docname="icn_maintainance_wht.svg"
   inkscape:version="0.92.1 r15371"><metadata
     id="metadata248"><rdf:RDF><cc:Work
         rdf:about=""><dc:format>image/svg+xml</dc:format><dc:type
           rdf:resource="http://purl.org/dc/dcmitype/StillImage" /><dc:title></dc:title></cc:Work></rdf:RDF></metadata><defs
     id="defs246"><clipPath
       clipPathUnits="userSpaceOnUse"
       id="clipPath258"><path
         d="M 0,24 H 24 V 0 H 0 Z"
         id="path256"
         inkscape:connector-curvature="0" /></clipPath></defs><sodipodi:namedview
     pagecolor="#ffffff"
     bordercolor="#ffffff"
     borderopacity="1"
     objecttolerance="10"
     gridtolerance="10"
     guidetolerance="10"
     inkscape:pageopacity="0"
     inkscape:pageshadow="2"
     inkscape:window-width="659"
     inkscape:window-height="480"
     id="namedview244"
     showgrid="false"
     inkscape:zoom="9.71875"
     inkscape:cx="16"
     inkscape:cy="16"
     inkscape:window-x="0"
     inkscape:window-y="0"
     inkscape:window-maximized="1"
     inkscape:current-layer="g250" /><g
     id="g250"
     inkscape:groupmode="layer"
     inkscape:label="icn_master_2"
     transform="matrix(1.3333333,0,0,-1.3333333,0,32)"><g
       id="g252"><g
         id="g254"
         clip-path="url(#clipPath258)"><g
           id="g260"
           transform="translate(15.9561,3.5137)"><path
             d="m 0,0 2.739,-0.01 0.026,11.022 c 10e-4,0.254 0.13,0.49 0.342,0.629 0.895,0.58 1.432,1.559 1.435,2.621 0.002,0.746 -0.332,1.42 -0.8,1.947 L 3.737,14.619 C 3.735,14.204 3.399,13.87 2.986,13.87 H 2.983 l -2.902,0.009 c -0.199,0.001 -0.39,0.08 -0.53,0.222 -0.141,0.14 -0.219,0.333 -0.218,0.531 l 0.005,1.677 c -0.611,-0.559 -1.066,-1.274 -1.068,-2.027 -0.003,-1.061 0.526,-2.045 1.418,-2.631 0.211,-0.139 0.338,-0.377 0.338,-0.63 z M 3.488,-1.514 H 3.485 l -4.24,0.014 c -0.415,10e-4 -0.749,0.338 -0.748,0.753 l 0.026,11.389 c -1.11,0.88 -1.759,2.214 -1.755,3.644 0.006,1.924 1.611,3.422 2.985,4.12 0.233,0.116 0.512,0.107 0.734,-0.03 0.222,-0.138 0.358,-0.381 0.357,-0.642 l -0.007,-2.355 1.4,-0.005 0.008,2.355 c 10e-4,0.261 0.137,0.503 0.361,0.639 0.224,0.137 0.5,0.146 0.734,0.027 1.648,-0.85 2.709,-2.474 2.704,-4.137 C 6.04,12.826 5.382,11.497 4.266,10.624 L 4.239,-0.765 C 4.238,-0.964 4.159,-1.155 4.018,-1.296 3.876,-1.436 3.687,-1.514 3.488,-1.514"
             style="fill:#ffffff;fill-opacity:1;fill-rule:nonzero;stroke:none"
             id="path262"
             inkscape:connector-curvature="0" /></g><g
           id="g264"
           transform="translate(4.6211,8.8291)"><path
             d="m 0,0 c -0.128,0 -0.232,-0.109 -0.232,-0.244 v -4.878 c 0,-0.134 0.104,-0.243 0.232,-0.243 h 3.705 c 0.127,0 0.231,0.109 0.231,0.243 v 4.878 C 3.936,-0.109 3.832,0 3.705,0 Z M 3.705,-6.829 H 0 c -0.894,0 -1.621,0.766 -1.621,1.707 v 4.878 c 0,0.941 0.727,1.708 1.621,1.708 h 3.705 c 0.893,0 1.621,-0.767 1.621,-1.708 v -4.878 c 0,-0.941 -0.728,-1.707 -1.621,-1.707"
             style="fill:#ffffff;fill-opacity:1;fill-rule:nonzero;stroke:none"
             id="path266"
             inkscape:connector-curvature="0" /></g><g
           id="g268"
           transform="translate(5.7788,10.293)"><path
             d="m 0,0 h 1.389 v 6.585 c 0,0.404 0.311,0.731 0.695,0.731 h 0.41 L 1.362,10.243 H 0.032 L -1.063,7.316 h 0.368 C -0.312,7.316 0,6.989 0,6.585 Z m 2.084,-1.464 h -2.779 c -0.383,0 -0.695,0.328 -0.695,0.732 v 6.586 h -0.694 c -0.23,0 -0.445,0.12 -0.575,0.32 -0.129,0.2 -0.155,0.454 -0.071,0.68 l 1.644,4.39 c 0.105,0.279 0.36,0.463 0.646,0.463 h 2.269 c 0.283,0 0.537,-0.18 0.644,-0.455 L 4.17,6.861 C 4.257,6.636 4.232,6.379 4.103,6.177 3.974,5.975 3.758,5.854 3.526,5.854 H 2.778 v -6.586 c 0,-0.404 -0.311,-0.732 -0.694,-0.732"
             style="fill:#ffffff;fill-opacity:1;fill-rule:nonzero;stroke:none"
             id="path270"
             inkscape:connector-curvature="0" /></g></g></g></g></svg>