<?xml version="1.0" encoding="UTF-8" standalone="no"?>
<!-- Created with Inkscape (http://www.inkscape.org/) -->

<svg
   xmlns:dc="http://purl.org/dc/elements/1.1/"
   xmlns:cc="http://creativecommons.org/ns#"
   xmlns:rdf="http://www.w3.org/1999/02/22-rdf-syntax-ns#"
   xmlns:svg="http://www.w3.org/2000/svg"
   xmlns="http://www.w3.org/2000/svg"
   xmlns:sodipodi="http://sodipodi.sourceforge.net/DTD/sodipodi-0.dtd"
   xmlns:inkscape="http://www.inkscape.org/namespaces/inkscape"
   version="1.1"
   id="svg108"
   xml:space="preserve"
   width="32"
   height="32"
   viewBox="0 0 32 32"
   sodipodi:docname="icn_box_wht.svg"
   inkscape:version="0.92.1 r15371"><metadata
     id="metadata114"><rdf:RDF><cc:Work
         rdf:about=""><dc:format>image/svg+xml</dc:format><dc:type
           rdf:resource="http://purl.org/dc/dcmitype/StillImage" /><dc:title></dc:title></cc:Work></rdf:RDF></metadata><defs
     id="defs112"><clipPath
       clipPathUnits="userSpaceOnUse"
       id="clipPath124"><path
         d="M 0,24 H 24 V 0 H 0 Z"
         id="path122"
         inkscape:connector-curvature="0" /></clipPath></defs><sodipodi:namedview
     pagecolor="#ffffff"
     bordercolor="#ffffff"
     borderopacity="1"
     objecttolerance="10"
     gridtolerance="10"
     guidetolerance="10"
     inkscape:pageopacity="0"
     inkscape:pageshadow="2"
     inkscape:window-width="659"
     inkscape:window-height="480"
     id="namedview110"
     showgrid="false"
     inkscape:zoom="9.71875"
     inkscape:cx="16"
     inkscape:cy="16"
     inkscape:window-x="0"
     inkscape:window-y="0"
     inkscape:window-maximized="1"
     inkscape:current-layer="g116" /><g
     id="g116"
     inkscape:groupmode="layer"
     inkscape:label="icn_master_1"
     transform="matrix(1.3333333,0,0,-1.3333333,0,32)"><g
       id="g118"><g
         id="g120"
         clip-path="url(#clipPath124)"><path
           d="M 19.043,5.454 H 4.957 v 8.728 H 19.043 Z M 6.645,18.546 h 4.626 V 15.637 H 5.35 Z M 18.65,15.637 h -5.921 v 2.909 h 4.626 z m 1.819,-0.573 c -0.011,0.045 -0.012,0.092 -0.031,0.134 -10e-4,0.002 0,0.004 -10e-4,0.006 l -1.943,4.364 C 18.378,19.83 18.117,20 17.828,20 H 6.172 C 5.883,20 5.622,19.83 5.506,19.568 L 3.563,15.204 C 3.562,15.202 3.563,15.2 3.562,15.198 3.543,15.156 3.542,15.109 3.531,15.064 3.521,15.015 3.502,14.965 3.501,14.915 3.501,14.913 3.5,14.911 3.5,14.909 V 4.728 C 3.5,4.326 3.826,4 4.229,4 H 19.771 C 20.174,4 20.5,4.326 20.5,4.728 v 10.181 c 0,0.002 -0.001,0.004 -0.001,0.006 -10e-4,0.05 -0.02,0.1 -0.03,0.149"
           style="fill:#ffffff;fill-opacity:1;fill-rule:nonzero;stroke:none"
           id="path126"
           inkscape:connector-curvature="0" /><g
           id="g128"
           transform="translate(9.5713,10.5459)"><path
             d="m 0,0 h 4.857 c 0.537,0 0.972,0.434 0.972,0.97 0,0.535 -0.435,0.968 -0.972,0.968 H 0 C -0.536,1.938 -0.972,1.505 -0.972,0.97 -0.972,0.434 -0.536,0 0,0"
             style="fill:#ffffff;fill-opacity:1;fill-rule:nonzero;stroke:none"
             id="path130"
             inkscape:connector-curvature="0" /></g></g></g></g></svg>