<?xml version="1.0" encoding="UTF-8" standalone="no"?>
<!-- Created with Inkscape (http://www.inkscape.org/) -->

<svg
   xmlns:dc="http://purl.org/dc/elements/1.1/"
   xmlns:cc="http://creativecommons.org/ns#"
   xmlns:rdf="http://www.w3.org/1999/02/22-rdf-syntax-ns#"
   xmlns:svg="http://www.w3.org/2000/svg"
   xmlns="http://www.w3.org/2000/svg"
   xmlns:sodipodi="http://sodipodi.sourceforge.net/DTD/sodipodi-0.dtd"
   xmlns:inkscape="http://www.inkscape.org/namespaces/inkscape"
   version="1.1"
   id="svg280"
   xml:space="preserve"
   width="32"
   height="32"
   viewBox="0 0 32 32"
   sodipodi:docname="icn_abnormal_sku_wht.svg"
   inkscape:version="0.92.1 r15371"><metadata
     id="metadata286"><rdf:RDF><cc:Work
         rdf:about=""><dc:format>image/svg+xml</dc:format><dc:type
           rdf:resource="http://purl.org/dc/dcmitype/StillImage" /><dc:title></dc:title></cc:Work></rdf:RDF></metadata><defs
     id="defs284"><clipPath
       clipPathUnits="userSpaceOnUse"
       id="clipPath296"><path
         d="M 0,24 H 24 V 0 H 0 Z"
         id="path294"
         inkscape:connector-curvature="0" /></clipPath></defs><sodipodi:namedview
     pagecolor="#ffffff"
     bordercolor="#ffffff"
     borderopacity="1"
     objecttolerance="10"
     gridtolerance="10"
     guidetolerance="10"
     inkscape:pageopacity="0"
     inkscape:pageshadow="2"
     inkscape:window-width="659"
     inkscape:window-height="480"
     id="namedview282"
     showgrid="false"
     inkscape:zoom="9.71875"
     inkscape:cx="16"
     inkscape:cy="16"
     inkscape:window-x="0"
     inkscape:window-y="0"
     inkscape:window-maximized="1"
     inkscape:current-layer="g288" /><g
     id="g288"
     inkscape:groupmode="layer"
     inkscape:label="icn_master_2"
     transform="matrix(1.3333333,0,0,-1.3333333,0,32)"><g
       id="g290"><g
         id="g292"
         clip-path="url(#clipPath296)"><g
           id="g298"
           transform="translate(11.2139,5.5)"><path
             d="m 0,0 h -3.538 v 7.981 c 0,0.284 -0.154,0.543 -0.399,0.67 -0.244,0.129 -0.535,0.1 -0.753,-0.069 l -1.242,-0.965 -1.552,2.163 3.686,2.866 c 0.26,0.201 1.284,0.343 1.756,0.354 0.095,-0.111 0.215,-0.245 0.369,-0.415 0.087,-0.096 0.161,-0.176 0.196,-0.22 0.035,-0.042 0.073,-0.079 0.115,-0.113 1.258,-0.985 3.047,-0.984 4.297,10e-4 0.041,0.032 0.078,0.069 0.112,0.11 0.036,0.043 0.107,0.121 0.191,0.214 0.158,0.173 0.28,0.31 0.376,0.423 0.477,-0.012 1.497,-0.153 1.755,-0.354 L 9.057,9.78 7.943,8.229 8.8,6.916 10.643,9.483 c 0.114,0.159 0.163,0.359 0.135,0.556 -0.026,0.197 -0.128,0.375 -0.281,0.494 L 6.232,13.848 C 5.429,14.472 3.609,14.5 3.591,14.5 H 3.27 C 3.033,14.5 2.792,14.347 2.657,14.146 2.577,14.025 2.357,13.79 2.191,13.607 2.121,13.532 2.06,13.463 2.013,13.41 c -0.724,-0.536 -1.726,-0.539 -2.453,0 -0.049,0.055 -0.113,0.126 -0.185,0.205 -0.165,0.181 -0.381,0.412 -0.45,0.514 -0.129,0.23 -0.365,0.371 -0.622,0.371 h -0.322 c -0.018,0 -1.837,-0.028 -2.642,-0.652 L -8.925,10.533 C -9.078,10.414 -9.18,10.236 -9.206,10.039 -9.233,9.842 -9.185,9.642 -9.07,9.483 L -6.655,6.118 C -6.54,5.958 -6.37,5.853 -6.181,5.825 -5.99,5.794 -5.8,5.847 -5.646,5.966 l 0.667,0.518 V -0.75 c 0,-0.414 0.322,-0.75 0.72,-0.75 h 10.09 c 0.398,0 0.721,0.336 0.721,0.75 V 0 H 5.11 Z"
             style="fill:#ffffff;fill-opacity:1;fill-rule:nonzero;stroke:none"
             id="path300"
             inkscape:connector-curvature="0" /></g><g
           id="g302"
           transform="translate(20.3594,7.4336)"><path
             d="m 0,0 h -8.813 c -0.345,0 -0.553,0.386 -0.364,0.676 l 4.406,6.755 c 0.172,0.264 0.557,0.264 0.729,0 L 0.364,0.676 C 0.554,0.386 0.347,0 0,0 Z"
             style="fill:none;stroke:#ffffff;stroke-width:1.29999995;stroke-linecap:round;stroke-linejoin:round;stroke-miterlimit:10;stroke-dasharray:none;stroke-opacity:1"
             id="path304"
             inkscape:connector-curvature="0" /></g><path
           d="m 16.439,10.019 h -1.136 v 2.39 h 1.136 z"
           style="fill:#ffffff;fill-opacity:1;fill-rule:nonzero;stroke:none"
           id="path306"
           inkscape:connector-curvature="0" /><path
           d="m 16.439,8.423 h -1.136 v 1.14 h 1.136 z"
           style="fill:#ffffff;fill-opacity:1;fill-rule:nonzero;stroke:none"
           id="path308"
           inkscape:connector-curvature="0" /></g></g></g></svg>