<?xml version="1.0" encoding="UTF-8" standalone="no"?>
<!-- Created with Inkscape (http://www.inkscape.org/) -->

<svg
   xmlns:dc="http://purl.org/dc/elements/1.1/"
   xmlns:cc="http://creativecommons.org/ns#"
   xmlns:rdf="http://www.w3.org/1999/02/22-rdf-syntax-ns#"
   xmlns:svg="http://www.w3.org/2000/svg"
   xmlns="http://www.w3.org/2000/svg"
   xmlns:sodipodi="http://sodipodi.sourceforge.net/DTD/sodipodi-0.dtd"
   xmlns:inkscape="http://www.inkscape.org/namespaces/inkscape"
   version="1.1"
   id="svg318"
   xml:space="preserve"
   width="32"
   height="32"
   viewBox="0 0 32 32"
   sodipodi:docname="icn_promotion_wht.svg"
   inkscape:version="0.92.1 r15371"><metadata
     id="metadata324"><rdf:RDF><cc:Work
         rdf:about=""><dc:format>image/svg+xml</dc:format><dc:type
           rdf:resource="http://purl.org/dc/dcmitype/StillImage" /><dc:title></dc:title></cc:Work></rdf:RDF></metadata><defs
     id="defs322"><clipPath
       clipPathUnits="userSpaceOnUse"
       id="clipPath334"><path
         d="M 0,24 H 24 V 0 H 0 Z"
         id="path332"
         inkscape:connector-curvature="0" /></clipPath></defs><sodipodi:namedview
     pagecolor="#ffffff"
     bordercolor="#ffffff"
     borderopacity="1"
     objecttolerance="10"
     gridtolerance="10"
     guidetolerance="10"
     inkscape:pageopacity="0"
     inkscape:pageshadow="2"
     inkscape:window-width="659"
     inkscape:window-height="480"
     id="namedview320"
     showgrid="false"
     inkscape:zoom="9.71875"
     inkscape:cx="16"
     inkscape:cy="16"
     inkscape:window-x="0"
     inkscape:window-y="0"
     inkscape:window-maximized="1"
     inkscape:current-layer="g326" /><g
     id="g326"
     inkscape:groupmode="layer"
     inkscape:label="icn_master_2"
     transform="matrix(1.3333333,0,0,-1.3333333,0,32)"><g
       id="g328"><g
         id="g330"
         clip-path="url(#clipPath334)"><g
           id="g336"
           transform="translate(8.624,5.4785)"><path
             d="m 0,0 c 0.221,0 0.43,-0.118 0.547,-0.314 l 0.95,-1.591 1.531,1.013 c 0.212,0.14 0.484,0.14 0.696,0 l 1.531,-1.013 0.95,1.591 c 0.131,0.219 0.375,0.342 0.626,0.309 l 1.808,-0.23 0.181,1.856 c 0.026,0.256 0.195,0.474 0.435,0.556 l 1.727,0.594 -0.622,1.752 c -0.087,0.243 -0.026,0.514 0.154,0.694 l 1.303,1.304 -1.303,1.305 c -0.18,0.18 -0.241,0.452 -0.154,0.694 l 0.622,1.751 -1.726,0.594 c -0.24,0.081 -0.409,0.3 -0.435,0.556 L 8.64,13.278 6.831,13.048 C 6.58,13.017 6.336,13.138 6.205,13.357 l -0.95,1.591 -1.531,-1.013 c -0.212,-0.14 -0.484,-0.14 -0.696,0 L 1.497,14.948 0.547,13.357 C 0.416,13.138 0.173,13.016 -0.079,13.048 l -1.808,0.23 -0.181,-1.856 C -2.094,11.166 -2.263,10.948 -2.503,10.866 L -4.23,10.272 -3.608,8.52 C -3.521,8.277 -3.582,8.006 -3.762,7.826 L -5.065,6.521 -3.762,5.217 c 0.18,-0.18 0.241,-0.452 0.154,-0.694 L -4.23,2.771 -2.504,2.178 c 0.24,-0.081 0.409,-0.3 0.435,-0.556 l 0.181,-1.857 1.809,0.23 C -0.053,-0.001 -0.026,0 0,0 m 1.293,-3.479 c -0.048,0 -0.095,0.006 -0.143,0.017 -0.168,0.039 -0.314,0.146 -0.404,0.297 l -1.078,1.804 -2.049,-0.26 c -0.173,-0.022 -0.344,0.027 -0.479,0.139 -0.135,0.109 -0.221,0.271 -0.239,0.447 L -3.305,1.068 -5.261,1.74 C -5.426,1.796 -5.56,1.918 -5.635,2.078 -5.71,2.237 -5.72,2.421 -5.66,2.587 l 0.705,1.987 -1.476,1.478 c -0.124,0.124 -0.193,0.293 -0.193,0.469 0,0.177 0.069,0.346 0.193,0.47 l 1.476,1.478 -0.705,1.988 c -0.059,0.167 -0.05,0.35 0.025,0.509 0.075,0.159 0.21,0.282 0.374,0.338 l 1.957,0.672 0.206,2.103 c 0.018,0.176 0.104,0.337 0.239,0.447 0.135,0.111 0.308,0.161 0.479,0.139 l 2.049,-0.261 1.077,1.804 c 0.091,0.151 0.236,0.258 0.405,0.297 0.168,0.039 0.346,0.008 0.491,-0.088 l 1.734,-1.148 1.734,1.148 c 0.145,0.096 0.324,0.127 0.492,0.088 0.168,-0.039 0.314,-0.146 0.404,-0.297 l 1.077,-1.804 2.05,0.26 c 0.172,0.022 0.344,-0.027 0.479,-0.139 0.135,-0.109 0.221,-0.271 0.239,-0.447 l 0.206,-2.103 1.956,-0.672 c 0.165,-0.056 0.299,-0.178 0.374,-0.338 0.075,-0.159 0.085,-0.343 0.025,-0.509 L 11.707,8.469 13.183,6.991 c 0.124,-0.124 0.193,-0.293 0.193,-0.47 0,-0.176 -0.069,-0.345 -0.193,-0.469 L 11.707,4.574 12.412,2.586 C 12.471,2.419 12.462,2.236 12.387,2.077 12.312,1.917 12.177,1.795 12.013,1.739 L 10.056,1.067 9.85,-1.036 C 9.832,-1.212 9.746,-1.373 9.611,-1.483 9.476,-1.594 9.301,-1.642 9.132,-1.622 L 7.083,-1.361 6.006,-3.165 C 5.915,-3.316 5.77,-3.423 5.601,-3.462 5.432,-3.501 5.255,-3.47 5.11,-3.374 L 3.376,-2.226 1.642,-3.374 C 1.537,-3.442 1.416,-3.479 1.293,-3.479"
             style="fill:#ffffff;fill-opacity:1;fill-rule:nonzero;stroke:none"
             id="path338"
             inkscape:connector-curvature="0" /></g><g
           id="g340"
           transform="translate(14.7466,10.2974)"><path
             d="m 0,0 c 0,0.497 -0.176,0.78 -0.475,0.78 -0.298,0 -0.48,-0.288 -0.48,-0.78 0,-0.487 0.182,-0.78 0.48,-0.78 C -0.181,-0.78 0,-0.487 0,0 m -0.475,-1.858 c -1.043,0 -1.728,0.735 -1.728,1.858 0,1.118 0.685,1.848 1.728,1.848 1.043,0 1.728,-0.73 1.728,-1.848 0,-1.123 -0.685,-1.858 -1.728,-1.858 M -4.539,3.82 c 0,0.496 -0.171,0.78 -0.474,0.78 -0.299,0 -0.48,-0.288 -0.48,-0.78 0,-0.487 0.181,-0.78 0.48,-0.78 0.293,0 0.474,0.293 0.474,0.78 M -5.013,1.962 c -1.043,0 -1.734,0.735 -1.734,1.853 0,1.118 0.686,1.852 1.734,1.852 1.047,0 1.733,-0.73 1.733,-1.852 0,-1.118 -0.686,-1.853 -1.733,-1.853"
             style="fill:#ffffff;fill-opacity:1;fill-rule:nonzero;stroke:none"
             id="path342"
             inkscape:connector-curvature="0" /></g><g
           id="g344"
           transform="translate(10.0029,8)"><path
             d="M 0,0 -0.808,0.516 3.834,8 4.642,7.484 Z"
             style="fill:#ffffff;fill-opacity:1;fill-rule:evenodd;stroke:none"
             id="path346"
             inkscape:connector-curvature="0" /></g></g></g></g></svg>