<?xml version="1.0" encoding="UTF-8" standalone="no"?>
<!-- Created with Inkscape (http://www.inkscape.org/) -->

<svg
   xmlns:dc="http://purl.org/dc/elements/1.1/"
   xmlns:cc="http://creativecommons.org/ns#"
   xmlns:rdf="http://www.w3.org/1999/02/22-rdf-syntax-ns#"
   xmlns:svg="http://www.w3.org/2000/svg"
   xmlns="http://www.w3.org/2000/svg"
   xmlns:sodipodi="http://sodipodi.sourceforge.net/DTD/sodipodi-0.dtd"
   xmlns:inkscape="http://www.inkscape.org/namespaces/inkscape"
   version="1.1"
   id="svg140"
   xml:space="preserve"
   width="32"
   height="32"
   viewBox="0 0 32 32"
   sodipodi:docname="icn_excess_store_stock_wht.svg"
   inkscape:version="0.92.1 r15371"><metadata
     id="metadata146"><rdf:RDF><cc:Work
         rdf:about=""><dc:format>image/svg+xml</dc:format><dc:type
           rdf:resource="http://purl.org/dc/dcmitype/StillImage" /><dc:title></dc:title></cc:Work></rdf:RDF></metadata><defs
     id="defs144"><clipPath
       clipPathUnits="userSpaceOnUse"
       id="clipPath156"><path
         d="M 0,24 H 24 V 0 H 0 Z"
         id="path154"
         inkscape:connector-curvature="0" /></clipPath></defs><sodipodi:namedview
     pagecolor="#ffffff"
     bordercolor="#ffffff"
     borderopacity="1"
     objecttolerance="10"
     gridtolerance="10"
     guidetolerance="10"
     inkscape:pageopacity="0"
     inkscape:pageshadow="2"
     inkscape:window-width="659"
     inkscape:window-height="480"
     id="namedview142"
     showgrid="false"
     inkscape:zoom="9.71875"
     inkscape:cx="16"
     inkscape:cy="16"
     inkscape:window-x="0"
     inkscape:window-y="0"
     inkscape:window-maximized="1"
     inkscape:current-layer="g148" /><g
     id="g148"
     inkscape:groupmode="layer"
     inkscape:label="icn_master_1"
     transform="matrix(1.3333333,0,0,-1.3333333,0,32)"><g
       id="g150"><g
         id="g152"
         clip-path="url(#clipPath156)"><g
           id="g158"
           transform="translate(12.5874,14.0557)"><path
             d="M 0,0 3.952,6.063 7.904,0 Z M 9.189,0.375 4.847,7.036 c -0.396,0.607 -1.392,0.609 -1.789,0 L -1.284,0.375 c -0.216,-0.33 -0.233,-0.75 -0.045,-1.097 0.187,-0.345 0.547,-0.561 0.94,-0.561 h 8.683 c 0.393,0 0.752,0.216 0.939,0.561 0.188,0.347 0.171,0.767 -0.044,1.097"
             style="fill:#ffffff;fill-opacity:1;fill-rule:nonzero;stroke:none"
             id="path160"
             inkscape:connector-curvature="0" /></g><path
           d="m 15.9,15.963 h 1.119 V 18.32 H 15.9 Z"
           style="fill:#ffffff;fill-opacity:1;fill-rule:nonzero;stroke:none"
           id="path162"
           inkscape:connector-curvature="0" /><path
           d="m 15.9,14.39 h 1.119 v 1.124 H 15.9 Z"
           style="fill:#ffffff;fill-opacity:1;fill-rule:nonzero;stroke:none"
           id="path164"
           inkscape:connector-curvature="0" /><g
           id="g166"
           transform="translate(16.2632,4.1533)"><path
             d="m 0,0 c 0,-0.179 -0.146,-0.323 -0.323,-0.323 h -4.871 c -0.179,0 -0.324,0.144 -0.324,0.323 v 0.656 c 0,0.179 0.145,0.323 0.324,0.323 h 4.871 C -0.146,0.979 0,0.835 0,0.656 Z m -7.514,0 c 0,-0.179 -0.145,-0.323 -0.323,-0.323 h -4.872 c -0.178,0 -0.323,0.144 -0.323,0.323 v 0.656 c 0,0.179 0.145,0.323 0.323,0.323 h 4.872 c 0.178,0 0.323,-0.144 0.323,-0.323 z m -5.518,8.413 c 0,0.179 0.145,0.324 0.323,0.324 h 4.872 c 0.178,0 0.323,-0.145 0.323,-0.324 V 7.757 c 0,-0.178 -0.145,-0.323 -0.323,-0.323 h -4.872 c -0.178,0 -0.323,0.145 -0.323,0.323 z M -6.563,1.62 C -6.548,1.641 -6.53,1.657 -6.516,1.678 -6.502,1.657 -6.483,1.641 -6.468,1.62 -6.483,1.601 -6.502,1.584 -6.516,1.563 -6.53,1.584 -6.548,1.601 -6.563,1.62 m 0.095,2.587 C -6.483,4.187 -6.502,4.17 -6.516,4.149 -6.53,4.17 -6.548,4.187 -6.563,4.207 c 0.015,0.02 0.033,0.036 0.047,0.057 0.014,-0.021 0.033,-0.037 0.048,-0.057 m -6.564,0.964 v 0.657 c 0,0.178 0.145,0.322 0.323,0.322 h 4.872 c 0.178,0 0.323,-0.144 0.323,-0.322 V 5.171 c 0,-0.179 -0.145,-0.323 -0.323,-0.323 h -4.872 c -0.178,0 -0.323,0.144 -0.323,0.323 m 0,-2.586 v 0.657 c 0,0.178 0.145,0.323 0.323,0.323 h 4.872 c 0.178,0 0.323,-0.145 0.323,-0.323 V 2.585 c 0,-0.178 -0.145,-0.323 -0.323,-0.323 h -4.872 c -0.178,0 -0.323,0.145 -0.323,0.323 M 0,3.242 V 2.585 C 0,2.407 -0.146,2.262 -0.323,2.262 h -4.871 c -0.179,0 -0.324,0.145 -0.324,0.323 v 0.657 c 0,0.178 0.145,0.323 0.324,0.323 h 4.871 C -0.146,3.565 0,3.42 0,3.242 m -5.518,2.586 c 0,0.178 0.145,0.322 0.324,0.322 h 4.871 C -0.146,6.15 0,6.006 0,5.828 V 5.171 C 0,4.992 -0.146,4.848 -0.323,4.848 h -4.871 c -0.179,0 -0.324,0.144 -0.324,0.323 z m 5.195,1.606 h -4.871 c -0.548,0 -1.033,-0.278 -1.322,-0.7 -0.014,0.021 -0.032,0.038 -0.047,0.058 0.204,0.27 0.33,0.602 0.33,0.965 v 0.656 c 0,0.887 -0.72,1.607 -1.604,1.607 h -4.872 c -0.884,0 -1.604,-0.72 -1.604,-1.607 V 7.757 c 0,-0.363 0.126,-0.695 0.33,-0.965 -0.204,-0.27 -0.33,-0.601 -0.33,-0.964 V 5.171 c 0,-0.363 0.126,-0.695 0.33,-0.964 -0.204,-0.269 -0.33,-0.602 -0.33,-0.965 V 2.585 c 0,-0.363 0.126,-0.695 0.33,-0.965 -0.204,-0.268 -0.33,-0.6 -0.33,-0.964 V 0 c 0,-0.886 0.72,-1.606 1.604,-1.606 h 4.872 c 0.548,0 1.032,0.277 1.321,0.699 0.289,-0.422 0.774,-0.699 1.322,-0.699 h 4.871 c 0.884,0 1.604,0.72 1.604,1.606 v 0.656 c 0,0.364 -0.126,0.696 -0.33,0.964 0.204,0.27 0.33,0.602 0.33,0.965 v 0.657 c 0,0.363 -0.126,0.696 -0.33,0.965 0.204,0.269 0.33,0.601 0.33,0.964 v 0.657 c 0,0.885 -0.72,1.606 -1.604,1.606"
             style="fill:#ffffff;fill-opacity:1;fill-rule:nonzero;stroke:none"
             id="path168"
             inkscape:connector-curvature="0" /></g></g></g></g></svg>