<?xml version="1.0" encoding="UTF-8" standalone="no"?>
<!-- Created with Inkscape (http://www.inkscape.org/) -->

<svg
   xmlns:dc="http://purl.org/dc/elements/1.1/"
   xmlns:cc="http://creativecommons.org/ns#"
   xmlns:rdf="http://www.w3.org/1999/02/22-rdf-syntax-ns#"
   xmlns:svg="http://www.w3.org/2000/svg"
   xmlns="http://www.w3.org/2000/svg"
   xmlns:sodipodi="http://sodipodi.sourceforge.net/DTD/sodipodi-0.dtd"
   xmlns:inkscape="http://www.inkscape.org/namespaces/inkscape"
   version="1.1"
   id="svg178"
   xml:space="preserve"
   width="32"
   height="32"
   viewBox="0 0 32 32"
   sodipodi:docname="icn_delivering_by_track.svg"
   inkscape:version="0.92.1 r15371"><metadata
     id="metadata184"><rdf:RDF><cc:Work
         rdf:about=""><dc:format>image/svg+xml</dc:format><dc:type
           rdf:resource="http://purl.org/dc/dcmitype/StillImage" /><dc:title></dc:title></cc:Work></rdf:RDF></metadata><defs
     id="defs182"><clipPath
       clipPathUnits="userSpaceOnUse"
       id="clipPath194"><path
         d="M 0,24 H 24 V 0 H 0 Z"
         id="path192"
         inkscape:connector-curvature="0" /></clipPath></defs><sodipodi:namedview
     pagecolor="#ffffff"
     bordercolor="#ffffff"
     borderopacity="1"
     objecttolerance="10"
     gridtolerance="10"
     guidetolerance="10"
     inkscape:pageopacity="0"
     inkscape:pageshadow="2"
     inkscape:window-width="659"
     inkscape:window-height="480"
     id="namedview180"
     showgrid="false"
     inkscape:zoom="9.71875"
     inkscape:cx="16"
     inkscape:cy="16"
     inkscape:window-x="0"
     inkscape:window-y="0"
     inkscape:window-maximized="1"
     inkscape:current-layer="g186" /><g
     id="g186"
     inkscape:groupmode="layer"
     inkscape:label="icn_master_1"
     transform="matrix(1.3333333,0,0,-1.3333333,0,32)"><g
       id="g188"><g
         id="g190"
         clip-path="url(#clipPath194)"><g
           id="g196"
           transform="translate(20.5366,7.7881)"><path
             d="m 0,0 c 0,-0.107 -0.099,-0.194 -0.22,-0.194 h -2.66 c -0.459,0.483 -1.109,0.791 -1.837,0.791 -0.385,0 -0.746,-0.092 -1.073,-0.244 v 6.428 h 3.512 c 0.062,0 0.122,-0.023 0.163,-0.064 L 0,4.63 Z m -4.717,-2.837 c -0.575,0 -1.044,0.445 -1.044,0.992 0,0.546 0.469,0.991 1.044,0.991 0.576,0 1.045,-0.445 1.045,-0.991 0,-0.547 -0.469,-0.992 -1.045,-0.992 m -2.536,2.643 h -4.888 c -0.459,0.483 -1.109,0.791 -1.836,0.791 -0.728,0 -1.378,-0.308 -1.836,-0.791 h -1.04 c -0.122,0 -0.22,0.087 -0.22,0.194 v 9.066 c 0,0.108 0.098,0.195 0.22,0.195 h 9.38 c 0.121,0 0.22,-0.087 0.22,-0.195 z m -6.724,-2.643 c -0.576,0 -1.044,0.445 -1.044,0.992 0,0.546 0.468,0.991 1.044,0.991 0.576,0 1.044,-0.445 1.044,-0.991 0,-0.547 -0.468,-0.992 -1.044,-0.992 M 1.248,5.445 -1.083,7.746 c -0.313,0.31 -0.749,0.487 -1.195,0.487 H -5.79 v 0.833 c 0,0.908 -0.755,1.646 -1.683,1.646 h -9.38 c -0.929,0 -1.684,-0.738 -1.684,-1.646 V 0 c 0,-0.907 0.755,-1.646 1.684,-1.646 h 0.389 c -0.006,-0.067 -0.021,-0.13 -0.021,-0.199 0,-1.346 1.125,-2.443 2.508,-2.443 1.383,0 2.507,1.097 2.507,2.443 0,0.069 -0.015,0.132 -0.02,0.199 h 4.286 c -0.005,-0.067 -0.02,-0.13 -0.02,-0.199 0,-1.346 1.124,-2.443 2.507,-2.443 1.384,0 2.509,1.097 2.509,2.443 0,0.069 -0.016,0.132 -0.021,0.199 h 2.009 c 0.928,0 1.683,0.739 1.683,1.646 v 4.931 c 0,0.193 -0.077,0.378 -0.215,0.514"
             style="fill:#ffffff;fill-opacity:1;fill-rule:nonzero;stroke:none"
             id="path198"
             inkscape:connector-curvature="0" /></g></g></g></g></svg>